HIERARCHY
ROOT Hips
{
	OFFSET 0.00000 0.00000 0.00000
	CHANNELS 6 Xposition Yposition Zposition Zrotation Yrotation Xrotation 
	JOINT LHipJoint
	{
		OFFSET 0 0 0
		CHANNELS 3 Zrotation Yrotation Xrotation
		JOINT LeftHip
		{
			OFFSET 1.58161 -1.81893 0.78828
			CHANNELS 3 Zrotation Yrotation Xrotation
			JOINT LeftKnee
			{
				OFFSET 2.53374 -6.96141 0.00000
				CHANNELS 3 Zrotation Yrotation Xrotation
				JOINT LeftAnkle
				{
					OFFSET 2.63509 -7.23986 0.00000
					CHANNELS 3 Zrotation Yrotation Xrotation
					JOINT LeftToe
					{
						OFFSET 0.14115 -0.38781 2.05350
						CHANNELS 3 Zrotation Yrotation Xrotation
						End Site
						{
							OFFSET 0.00000 -0.00000 1.05543
						}
					}
				}
			}
		}
	}
	JOINT RHipJoint
	{
		OFFSET 0 0 0
		CHANNELS 3 Zrotation Yrotation Xrotation
		JOINT RightHip
		{
			OFFSET -1.11138 -1.81893 0.78828
			CHANNELS 3 Zrotation Yrotation Xrotation
			JOINT RightKnee
			{
				OFFSET -2.58392 -7.09926 0.00000
				CHANNELS 3 Zrotation Yrotation Xrotation
				JOINT RightAnkle
				{
					OFFSET -2.66423 -7.31992 0.00000
					CHANNELS 3 Zrotation Yrotation Xrotation
					JOINT RightToe
					{
						OFFSET -0.18831 -0.51739 2.12114
						CHANNELS 3 Zrotation Yrotation Xrotation
						End Site
						{
							OFFSET -0.00000 -0.00000 1.09845
						}
					}
				}
			}
		}
	}
	JOINT lowerback
	{
		OFFSET 0 0 0
		CHANNELS 3 Zrotation Yrotation Xrotation
		JOINT Chest
		{
			OFFSET -0.01511 1.97958 -0.08829
			CHANNELS 3 Zrotation Yrotation Xrotation
			JOINT Chest2
			{
				OFFSET 0.08344 1.97334 -0.04330
				CHANNELS 3 Zrotation Yrotation Xrotation
				JOINT lowerneck
				{
					OFFSET 0 0 0
					CHANNELS 3 Zrotation Yrotation Xrotation
					JOINT Neck
					{
						OFFSET 0.00559 1.76246 0.31246
						CHANNELS 3 Zrotation Yrotation Xrotation
						JOINT Head
						{
							OFFSET -0.07011 1.80354 -0.30524
							CHANNELS 3 Zrotation Yrotation Xrotation
							End Site
							{
								OFFSET -0.02385 1.83547 -0.13906
							}
						}
					}
				}
				JOINT LeftCollar
				{
					OFFSET 0 0 0
					CHANNELS 3 Zrotation Yrotation Xrotation
					JOINT LeftShoulder
					{
						OFFSET 3.20667 1.30156 -0.60240
CHANNELS 3 Zrotation Xrotation Yrotation
						JOINT LeftElbow
						{
OFFSET 0 -4.956630 0.000000
CHANNELS 3 Zrotation Xrotation Yrotation
							JOINT LeftWrist
							{
OFFSET 0 -3.381770 0.000000
CHANNELS 3 Zrotation Xrotation Yrotation
								JOINT lhand
								{
									OFFSET 0 0 0
CHANNELS 3 Zrotation Xrotation Yrotation
									JOINT LFingers
									{
OFFSET 0 -0.662910 0.000000
CHANNELS 3 Zrotation Xrotation Yrotation
										End Site
										{
OFFSET 0 -0.534450 0.000000
										}
									}
								}
								JOINT LThumb
								{
OFFSET 0 0.000000 0.000000
CHANNELS 3 Zrotation Xrotation Yrotation
									End Site
									{
OFFSET 0 -0.542610 0.542610
									}
								}
							}
						}
					}
				}
				JOINT RightCollar
				{
					OFFSET 0 0 0
					CHANNELS 3 Zrotation Yrotation Xrotation
					JOINT RightShoulder
					{
						OFFSET -3.06877 1.34672 -0.60964
CHANNELS 3 Zrotation Xrotation Yrotation
						JOINT RightElbow
						{
OFFSET 0 -5.083650 0.000000
CHANNELS 3 Zrotation Xrotation Yrotation
							JOINT RightWrist
							{
OFFSET 0 -3.359840 0.000000
CHANNELS 3 Zrotation Xrotation Yrotation
								JOINT rhand
								{
									OFFSET 0 0 0
CHANNELS 3 Zrotation Xrotation Yrotation
									JOINT RFingers
									{
OFFSET 0 -0.820760 0.000000
CHANNELS 3 Zrotation Xrotation Yrotation
										End Site
										{
OFFSET 0 -0.661720 0.000000
										}
									}
								}
								JOINT RThumb
								{
OFFSET 0 0.000000 0.000000
CHANNELS 3 Zrotation Xrotation Yrotation
									End Site
									{
OFFSET 0 -0.671820 0.671820
									}
								}
							}
						}
					}
				}
			}
		}
	}
}
MOTION
Frames: 4
Frame Time: 0.008333333333333333
0.003900 18.094900 -9.461200 -4.380300 -0.117100 7.651800 0.000000 0.000000 0.000000 -12.215500 -2.983900 -11.754800 1.812400 8.464000 24.132400 0.741500 0.213200 -16.352800 0.261900 -3.292200 -9.093400 0.000000 0.000000 0.000000 21.023300 7.913800 -10.660900 -1.630400 -8.049600 22.864800 -0.599600 -1.257100 -15.135600 -0.024400 -1.008500 2.772200 -2.375400 0.031700 -7.930300 3.949300 0.081000 0.040400 5.484900 -0.057500 4.490000 1.508300 0.621000 -14.260900 -6.237100 3.210500 42.048600 -2.614500 0.686800 18.339700 -0.000000 -0.000000 0.000000 4.707400 3.655400 -56.663000 102.130000 -59.436700 70.485000 0.686000 -35.527900 -48.776900 0.000000 0.000000 0.000000 -7.125000 0.000000 0.000000 -61.126500 69.924000 41.211700 -0.000000 -0.000000 0.000000 -12.841500 4.747300 63.897400 -108.125600 -58.721500 -75.629800 -19.309500 -1.213500 -17.676400 0.000000 0.000000 0.000000 7.125000 0.000000 -0.000000 5.703100 11.392000 4.487100
0.008905 18.097008 -9.458478 -4.452746 -0.118066 7.839544 0.000000 0.000000 0.000000 -12.141825 -3.031143 -11.970732 1.817757 8.475591 24.168316 0.728065 0.261936 -16.222134 0.261637 -3.290707 -9.089097 0.000000 0.000000 0.000000 21.063343 7.940144 -10.856547 -1.626536 -8.040467 22.836963 -0.593453 -1.217935 -15.042694 -0.020273 -0.919282 2.526675 -2.448812 0.007288 -8.100833 4.055115 0.050441 0.077018 5.639627 -0.079629 4.628130 1.408983 0.646729 -14.583876 -6.258087 3.300069 42.081003 -2.594040 0.699006 18.455613 0.000000 0.000000 0.000000 5.060408 3.403464 -57.932337 101.097670 -59.528904 69.595630 3.084876 -30.904281 -46.811030 0.000000 0.000000 0.000000 -7.125000 0.000000 0.000000 -54.631585 69.700428 35.748940 0.000000 0.000000 0.000000 -12.999563 4.435213 63.935160 -107.904136 -58.753376 -75.440563 -19.521920 -1.065184 -17.541958 0.000000 0.000000 0.000000 7.125000 0.000000 0.000000 5.555925 11.506069 4.357137
0.016028 18.098586 -9.458403 -4.471270 -0.063220 7.917858 0.000000 0.000000 0.000000 -12.135533 -3.116200 -12.072847 1.823643 8.488695 24.208542 0.723856 0.281481 -16.182749 0.271431 -3.350925 -9.257373 0.000000 0.000000 0.000000 21.052792 7.921566 -10.930059 -1.619421 -8.023772 22.786363 -0.590104 -1.202669 -14.995239 -0.028019 -1.076000 2.957927 -2.509291 -0.038148 -8.188328 4.126520 -0.009083 0.147290 5.746028 -0.116127 4.758546 1.306718 0.648939 -14.791296 -6.297149 3.356666 42.054947 -2.583864 0.696541 18.501724 0.000000 0.000000 0.000000 5.439281 3.148201 -59.156374 100.045148 -59.614225 68.687958 8.119622 -24.012183 -48.463488 0.000000 0.000000 0.000000 -7.125000 0.000000 0.000000 -54.776864 72.365317 38.660024 0.000000 0.000000 0.000000 -13.144695 4.186575 63.978440 -107.849124 -58.761279 -75.393503 -19.561156 -1.061616 -17.664116 0.000000 0.000000 0.000000 7.125000 0.000000 0.000000 5.536634 11.373975 4.356948
0.024317 18.100396 -9.457485 -4.530144 0.001572 7.929244 0.000000 0.000000 0.000000 -12.091124 -3.209824 -12.094197 1.830502 8.503756 24.254855 0.729571 0.275133 -16.243716 0.264513 -3.308293 -9.138421 0.000000 0.000000 0.000000 21.091436 7.902537 -10.918673 -1.612669 -8.007888 22.738185 -0.586255 -1.236422 -14.963102 -0.027147 -1.062049 2.919613 -2.436622 -0.060899 -8.008750 4.143277 -0.046503 0.081769 5.713831 -0.128042 4.592981 1.170925 0.578083 -14.805256 -6.267311 3.280563 42.083227 -2.561009 0.646923 18.514318 0.000000 0.000000 0.000000 5.906315 3.147871 -60.556831 98.781229 -59.704465 67.597043 12.398786 -17.078254 -48.994107 0.000000 0.000000 0.000000 -7.125000 0.000000 0.000000 -52.649973 74.221629 38.779869 0.000000 0.000000 0.000000 -13.175265 4.230023 64.036884 -107.953333 -58.746350 -75.482593 -19.396440 -1.054603 -17.754098 0.000000 0.000000 0.000000 7.125000 0.000000 0.000000 5.649922 11.300480 4.455575
